<?xml version="1.0" encoding="UTF-8" standalone="no"?>
<svg
   id="Layer_1"
   data-name="Layer 1"
   viewBox="0 0 239.96583 191.23399"
   version="1.1"
   width="239.96584"
   height="191.23401"
   xmlns:xlink="http://www.w3.org/1999/xlink"
   xmlns="http://www.w3.org/2000/svg"
   xmlns:svg="http://www.w3.org/2000/svg"
   xmlns:rdf="http://www.w3.org/1999/02/22-rdf-syntax-ns#"
   xmlns:cc="http://creativecommons.org/ns#"
   xmlns:dc="http://purl.org/dc/elements/1.1/">
  <title
     id="title82">NOHR AI</title>
  <defs
     id="defs6">
    <linearGradient
       id="linearGradient12"
       x1="358.44"
       y1="233.78"
       x2="315.34"
       y2="363.07999"
       gradientUnits="userSpaceOnUse">
      <stop
         offset="0"
         stop-color="#693a8a"
         id="stop7"
         style="stop-color:#7f456b;stop-opacity:1;" />
      <stop
         offset="0.20999999"
         stop-color="#913a8d"
         id="stop8"
         style="stop-color:#92288d;stop-opacity:1;" />
      <stop
         offset="0.45"
         stop-color="#b93991"
         id="stop9" />
      <stop
         offset="0.67"
         stop-color="#d53993"
         id="stop10" />
      <stop
         offset="0.86"
         stop-color="#e73994"
         id="stop11" />
      <stop
         offset="1"
         stop-color="#ed3995"
         id="stop12" />
    </linearGradient>
    <style
       id="style1">.cls-1{fill:#f1f2f2;}.cls-2{fill:url(#linear-gradient);}.cls-3{fill:url(#linear-gradient-2);}.cls-4{fill:url(#linear-gradient-3);}.cls-5{fill:url(#linear-gradient-4);}</style>
    <linearGradient
       id="linear-gradient"
       x1="358.44"
       y1="233.78"
       x2="315.34"
       y2="363.07999"
       gradientUnits="userSpaceOnUse">
      <stop
         offset="0"
         stop-color="#693a8a"
         id="stop1" />
      <stop
         offset="0.21"
         stop-color="#913a8d"
         id="stop2" />
      <stop
         offset="0.45"
         stop-color="#b93991"
         id="stop3" />
      <stop
         offset="0.67"
         stop-color="#d53993"
         id="stop4" />
      <stop
         offset="0.86"
         stop-color="#e73994"
         id="stop5" />
      <stop
         offset="1"
         stop-color="#ed3995"
         id="stop6" />
    </linearGradient>
    <linearGradient
       id="linear-gradient-2"
       x1="459.79001"
       y1="307.73001"
       x2="490.76999"
       y2="205.37"
       xlink:href="#linear-gradient"
       gradientTransform="translate(-284.26618,-172.56725)" />
    <linearGradient
       id="linear-gradient-3"
       x1="474.59"
       y1="326.79999"
       x2="253.71001"
       y2="256.76001"
       xlink:href="#linear-gradient"
       gradientTransform="translate(-284.26618,-172.56725)" />
    <filter
       style="color-interpolation-filters:sRGB"
       id="filter28"
       x="-0.0042109732"
       y="-0.0058100724"
       width="1.0084219"
       height="1.0116201">
      <feGaussianBlur
         stdDeviation="0.11 0.11"
         result="fbSourceGraphic"
         id="feGaussianBlur28" />
      <feColorMatrix
         result="fbSourceGraphicAlpha"
         in="fbSourceGraphic"
         values="0 0 0 -1 0 0 0 0 -1 0 0 0 0 -1 0 0 0 0 1 0"
         id="feColorMatrix28" />
      <feGaussianBlur
         id="feGaussianBlur29"
         stdDeviation="0.11 0.11"
         result="fbSourceGraphic"
         in="fbSourceGraphic" />
      <feColorMatrix
         result="fbSourceGraphicAlpha"
         in="fbSourceGraphic"
         values="0 0 0 -1 0 0 0 0 -1 0 0 0 0 -1 0 0 0 0 1 0"
         id="feColorMatrix32" />
      <feGaussianBlur
         id="feGaussianBlur33"
         stdDeviation="0.11 0.21"
         result="fbSourceGraphic"
         in="fbSourceGraphic" />
      <feColorMatrix
         result="fbSourceGraphicAlpha"
         in="fbSourceGraphic"
         values="0 0 0 -1 0 0 0 0 -1 0 0 0 0 -1 0 0 0 0 1 0"
         id="feColorMatrix74" />
      <feConvolveMatrix
         id="feConvolveMatrix74"
         order="3 3"
         kernelMatrix="0 -0.15 0 -0.15 1.6 -0.15 0 -0.15 0"
         divisor="1"
         in="fbSourceGraphic"
         targetX="1"
         targetY="1"
         result="fbSourceGraphic" />
      <feColorMatrix
         result="fbSourceGraphicAlpha"
         in="fbSourceGraphic"
         values="0 0 0 -1 0 0 0 0 -1 0 0 0 0 -1 0 0 0 0 1 0"
         id="feColorMatrix78" />
      <feConvolveMatrix
         id="feConvolveMatrix78"
         targetY="1"
         targetX="1"
         in="fbSourceGraphic"
         divisor="1"
         kernelMatrix="0 -0.3 0 -0.3 2.2 -0.3 0 -0.3 0"
         order="3 3"
         result="result1" />
      <feBlend
         id="feBlend78"
         in2="fbSourceGraphic"
         mode="normal"
         result="result2" />
    </filter>
    <filter
       style="color-interpolation-filters:sRGB"
       id="filter30"
       x="-0.0027878888"
       y="-0.0034509754"
       width="1.0055758"
       height="1.006902">
      <feGaussianBlur
         stdDeviation="0.11 0.21"
         result="fbSourceGraphic"
         id="feGaussianBlur30" />
      <feColorMatrix
         result="fbSourceGraphicAlpha"
         in="fbSourceGraphic"
         values="0 0 0 -1 0 0 0 0 -1 0 0 0 0 -1 0 0 0 0 1 0"
         id="feColorMatrix71" />
      <feConvolveMatrix
         id="feConvolveMatrix71"
         order="3 3"
         kernelMatrix="0 -0.15 0 -0.15 1.6 -0.15 0 -0.15 0"
         divisor="1"
         in="fbSourceGraphic"
         targetX="1"
         targetY="1"
         result="fbSourceGraphic" />
      <feColorMatrix
         result="fbSourceGraphicAlpha"
         in="fbSourceGraphic"
         values="0 0 0 -1 0 0 0 0 -1 0 0 0 0 -1 0 0 0 0 1 0"
         id="feColorMatrix75" />
      <feConvolveMatrix
         id="feConvolveMatrix75"
         targetY="1"
         targetX="1"
         in="fbSourceGraphic"
         divisor="1"
         kernelMatrix="0 -0.3 0 -0.3 2.2 -0.3 0 -0.3 0"
         order="3 3"
         result="result1" />
      <feBlend
         id="feBlend75"
         in2="fbSourceGraphic"
         mode="normal"
         result="result2" />
    </filter>
    <filter
       style="color-interpolation-filters:sRGB"
       id="filter31"
       x="-0.0031007526"
       y="-0.0044840436"
       width="1.0062015"
       height="1.0089681">
      <feGaussianBlur
         stdDeviation="0.11 0.21"
         result="fbSourceGraphic"
         id="feGaussianBlur31" />
      <feColorMatrix
         result="fbSourceGraphicAlpha"
         in="fbSourceGraphic"
         values="0 0 0 -1 0 0 0 0 -1 0 0 0 0 -1 0 0 0 0 1 0"
         id="feColorMatrix72" />
      <feConvolveMatrix
         id="feConvolveMatrix72"
         order="3 3"
         kernelMatrix="0 -0.15 0 -0.15 1.6 -0.15 0 -0.15 0"
         divisor="1"
         in="fbSourceGraphic"
         targetX="1"
         targetY="1"
         result="fbSourceGraphic" />
      <feColorMatrix
         result="fbSourceGraphicAlpha"
         in="fbSourceGraphic"
         values="0 0 0 -1 0 0 0 0 -1 0 0 0 0 -1 0 0 0 0 1 0"
         id="feColorMatrix76" />
      <feConvolveMatrix
         id="feConvolveMatrix76"
         targetY="1"
         targetX="1"
         in="fbSourceGraphic"
         divisor="1"
         kernelMatrix="0 -0.3 0 -0.3 2.2 -0.3 0 -0.3 0"
         order="3 3"
         result="result1" />
      <feBlend
         id="feBlend76"
         in2="fbSourceGraphic"
         mode="normal"
         result="result2" />
    </filter>
    <filter
       style="color-interpolation-filters:sRGB"
       id="filter32"
       x="-0.0014158165"
       y="-0.0030278719"
       width="1.0028316"
       height="1.0060557">
      <feGaussianBlur
         stdDeviation="0.11 0.21"
         result="fbSourceGraphic"
         id="feGaussianBlur32" />
      <feColorMatrix
         result="fbSourceGraphicAlpha"
         in="fbSourceGraphic"
         values="0 0 0 -1 0 0 0 0 -1 0 0 0 0 -1 0 0 0 0 1 0"
         id="feColorMatrix73" />
      <feConvolveMatrix
         id="feConvolveMatrix73"
         order="3 3"
         kernelMatrix="0 -0.15 0 -0.15 1.6 -0.15 0 -0.15 0"
         divisor="1"
         in="fbSourceGraphic"
         targetX="1"
         targetY="1"
         result="fbSourceGraphic" />
      <feColorMatrix
         result="fbSourceGraphicAlpha"
         in="fbSourceGraphic"
         values="0 0 0 -1 0 0 0 0 -1 0 0 0 0 -1 0 0 0 0 1 0"
         id="feColorMatrix77" />
      <feConvolveMatrix
         id="feConvolveMatrix77"
         targetY="1"
         targetX="1"
         in="fbSourceGraphic"
         divisor="1"
         kernelMatrix="0 -0.3 0 -0.3 2.2 -0.3 0 -0.3 0"
         order="3 3"
         result="result1" />
      <feBlend
         id="feBlend77"
         in2="fbSourceGraphic"
         mode="normal"
         result="result2" />
    </filter>
    <linearGradient
       xlink:href="#linear-gradient"
       id="linearGradient82"
       gradientUnits="userSpaceOnUse"
       x1="358.44"
       y1="233.78"
       x2="315.34"
       y2="363.07999"
       gradientTransform="translate(-284.26618,-172.56725)" />
    <linearGradient
       xlink:href="#linearGradient12"
       id="linearGradient10960"
       gradientTransform="translate(-284.26618,-172.56725)"
       x1="584.71997"
       y1="320.06"
       x2="332.85999"
       y2="204.23" />
  </defs>
  <path
     d="m 80.970758,44.684344 c -2.29443,9.27066 -4.616929,17.847761 -6.953125,25.933593 -7.1e-4,0.0025 -0.0012,0.0053 -0.002,0.0078 -5.5e-4,0.0019 -0.0014,0.0039 -0.002,0.0059 v 0.002 c -3.82e-4,0.0013 -0.0016,0.0026 -0.002,0.0039 -7.39e-4,0.0013 -0.0016,0.0026 -0.002,0.0039 -9.43e-4,0.0032 -0.0011,0.0067 -0.002,0.0098 -0.02526,0.088 -0.05091,0.175797 -0.07617,0.263671 -1.098695,3.796033 -2.198992,7.517125 -3.302734,11.087891 -0.0027,0.0088 -0.0051,0.01855 -0.0078,0.02734 -0.0012,0.0038 -0.0027,0.0079 -0.0039,0.01172 l -0.002,0.002 v 0.002 c -0.0014,0.0039 -0.0027,0.0079 -0.0039,0.01172 -0.0028,0.0091 -0.0051,0.01855 -0.0078,0.02734 -0.07488,0.242713 -0.149715,0.494708 -0.224609,0.736328 -0.0048,0.01542 -0.0089,0.0316 -0.01367,0.04687 -0.003,0.0097 -0.0068,0.01959 -0.0098,0.0293 -0.998317,3.211058 -1.997658,6.309639 -2.998047,9.330078 -0.0019,0.0057 -0.004,0.01186 -0.0059,0.01758 -8.2e-4,0.0025 -0.0011,0.0053 -0.002,0.0078 -0.0011,0.0032 -0.0028,0.0065 -0.0039,0.0098 -0.0014,0.0032 -0.0028,0.0065 -0.0039,0.0098 -0.263819,0.798244 -0.527127,1.597589 -0.791015,2.382813 -0.008,0.02378 -0.01545,0.04851 -0.02344,0.07227 -0.811282,2.412812 -1.62233,4.739446 -2.433594,7.031252 -0.04755,0.13433 -0.09503,0.2782 -0.142578,0.41211 -0.0045,0.0127 -0.0092,0.0264 -0.01367,0.0391 -4.72e-4,0.001 -0.0015,0.003 -0.002,0.004 -0.0059,0.0167 -0.01172,0.0343 -0.01758,0.0508 -0.004,0.0114 -0.0077,0.0238 -0.01172,0.0352 -0.0063,0.0178 -0.0132,0.0369 -0.01953,0.0547 -6.73e-4,0.002 -0.0013,0.004 -0.002,0.006 -5.64e-4,0.001 -0.0015,0.003 -0.002,0.004 -0.394754,1.11024 -0.789045,2.19709 -1.183594,3.2793 -0.0021,0.006 -0.0038,0.0118 -0.0059,0.0176 -0.0019,0.005 -0.004,0.0104 -0.0059,0.0156 -0.0047,0.0128 -0.009,0.0262 -0.01367,0.0391 -0.0064,0.0175 -0.01317,0.0353 -0.01953,0.0527 -0.0057,0.0155 -0.01191,0.0314 -0.01758,0.0469 -0.768002,2.09903 -1.534274,4.17082 -2.300781,6.16602 -0.0037,0.01 -0.008,0.0197 -0.01172,0.0293 -5.05e-4,0.001 -0.0014,0.003 -0.002,0.004 -7.82e-4,0.002 -0.0012,0.004 -0.002,0.006 -0.543772,1.41803 -1.086234,2.77582 -1.628906,4.14258 -0.0035,0.009 -0.0062,0.0184 -0.0098,0.0273 -0.642922,1.61558 -1.28491,3.24566 -1.925781,4.79102 -0.0058,0.0139 -0.01182,0.029 -0.01758,0.043 -0.0032,0.008 -0.0066,0.0158 -0.0098,0.0234 -5.4e-4,9.3e-4 -0.0014,0.005 -0.002,0.006 -6.89e-4,10e-4 -0.0014,0.002 -0.002,0.004 -0.0021,0.005 -0.0038,0.0106 -0.0059,0.0156 -0.0032,0.008 -0.0066,0.0158 -0.0098,0.0234 -0.0012,0.003 -0.0028,0.007 -0.0039,0.01 -0.0026,0.006 -0.0052,0.0132 -0.0078,0.0195 -0.0071,0.0171 -0.01441,0.0357 -0.02148,0.0527 -0.674703,1.6272 -1.345712,3.16397 -2.017579,4.71485 -0.03426,0.0789 -0.06925,0.16132 -0.103515,0.24023 -0.01283,0.0295 -0.02623,0.0603 -0.03906,0.0898 -0.01775,0.0408 -0.03498,0.0842 -0.05273,0.125 -0.104595,0.24041 -0.209937,0.48406 -0.314453,0.72265 -0.0065,0.0148 -0.01304,0.0301 -0.01953,0.0449 v 0.002 c -0.002,0.004 -0.0039,0.009 -0.0059,0.0137 l -0.002,0.002 c -0.0085,0.0193 -0.01693,0.0393 -0.02539,0.0586 -0.0057,0.013 -0.0119,0.0261 -0.01758,0.0391 -0.006,0.0136 -0.01166,0.0275 -0.01758,0.041 -0.09788,0.22624 -0.195618,0.45343 -0.292969,0.67383 -0.212123,0.49192 -0.423833,0.99266 -0.634765,1.46289 -8.14e-4,0.002 -0.0011,0.004 -0.002,0.006 -0.0079,0.0177 -0.01553,0.0331 -0.02344,0.0508 -1.152447,2.57154 -2.299168,5.03184 -3.439453,7.38868 -0.022,0.0455 -0.04441,0.0972 -0.06641,0.14257 -0.03703,0.0765 -0.07431,0.16404 -0.111328,0.24024 -0.0052,0.0106 -0.01046,0.0226 -0.01563,0.0332 -0.0049,0.0101 -0.01071,0.0212 -0.01563,0.0312 -0.0046,0.009 -0.0091,0.0199 -0.01367,0.0293 -0.09231,0.18984 -0.185125,0.37208 -0.277344,0.56054 -0.0093,0.0189 -0.01807,0.0377 -0.02734,0.0566 -0.01763,0.0358 -0.03506,0.0714 -0.05273,0.10742 -0.0129,0.0262 -0.02613,0.0518 -0.03906,0.0781 -0.0023,0.005 -0.0055,0.009 -0.0078,0.0137 -0.0058,0.0118 -0.01175,0.0234 -0.01758,0.0352 -0.01423,0.0288 -0.02871,0.0569 -0.04297,0.0859 l -0.0039,0.0117 c -0.906433,1.84248 -1.808543,3.62703 -2.705078,5.33984 -0.0089,0.017 -0.01844,0.0338 -0.02734,0.0508 -0.0046,0.009 -0.0091,0.0167 -0.01367,0.0254 -0.0017,0.003 -0.0042,0.009 -0.0059,0.0117 -0.0024,0.005 -0.0055,0.009 -0.0078,0.0137 v 0.004 c -6.75e-4,0.001 -0.0013,0.003 -0.002,0.004 -6.71e-4,10e-4 -0.0032,0.005 -0.0039,0.006 -0.0067,0.0127 -0.01481,0.0263 -0.02148,0.0391 -0.002,0.004 -0.0058,0.008 -0.0078,0.0117 -0.0063,0.012 -0.01325,0.0251 -0.01953,0.0371 -0.0027,0.005 -0.0052,0.0106 -0.0078,0.0156 -0.0037,0.007 -0.0081,0.0145 -0.01172,0.0215 -0.191272,0.36472 -0.381487,0.71724 -0.572265,1.07618 -0.02532,0.0474 -0.05082,0.095 -0.07617,0.14257 -0.0025,0.005 -0.0053,0.009 -0.0078,0.0137 -0.002,0.003 -0.0041,0.006 -0.0059,0.01 -0.0093,0.0174 -0.01804,0.0353 -0.02734,0.0527 -0.0066,0.0123 -0.01297,0.0248 -0.01953,0.0371 -0.0027,0.005 -0.0051,0.009 -0.0078,0.0137 -0.796316,1.49186 -1.586142,2.93655 -2.373047,4.33008 -0.0064,0.0114 -0.01312,0.0257 -0.01953,0.0371 -0.0025,0.004 -0.0034,0.009 -0.0059,0.0137 l -0.0039,0.002 c -0.0015,0.003 -0.0025,0.008 -0.0039,0.01 -0.0064,0.0113 -0.01313,0.0239 -0.01953,0.0352 -0.01416,0.0251 -0.02881,0.0492 -0.04297,0.0742 -0.0011,0.002 -0.0028,0.004 -0.0039,0.006 -0.24167,0.42728 -0.483894,0.85523 -0.724609,1.27344 -0.01107,0.0193 -0.02213,0.0394 -0.0332,0.0586 -0.0096,0.0167 -0.01966,0.0341 -0.0293,0.0508 -0.0078,0.0135 -0.01567,0.0275 -0.02344,0.041 -0.783728,1.35774 -1.561176,2.65994 -2.333984,3.92383 -0.0093,0.0153 -0.01995,0.0316 -0.0293,0.0469 -0.0062,0.0102 -0.0133,0.0215 -0.01953,0.0312 -0.0024,0.004 -0.0054,0.008 -0.0078,0.0117 -0.0067,0.0104 -0.0133,0.0211 -0.01953,0.0312 -7.5e-4,0.001 -0.0012,0.003 -0.002,0.004 -0.0065,0.0106 -0.01302,0.0226 -0.01953,0.0332 l -0.002,0.002 c -0.231217,0.37747 -0.463186,0.76747 -0.69336,1.13672 -0.0015,0.002 -0.0024,0.005 -0.0039,0.008 -0.0091,0.0146 -0.01826,0.0304 -0.02734,0.0449 -0.0083,0.0134 -0.01705,0.0277 -0.02539,0.041 -0.0032,0.005 -0.0066,0.0105 -0.0098,0.0156 -0.813942,1.30282 -1.617984,2.54134 -2.417969,3.74414 -0.01721,0.0259 -0.03553,0.0542 -0.05273,0.0801 -0.02177,0.0327 -0.04465,0.0689 -0.06641,0.10156 -0.02728,0.0409 -0.05673,0.0862 -0.08398,0.12695 -0.0059,0.009 -0.01175,0.0187 -0.01758,0.0273 -0.005,0.008 -0.01058,0.0159 -0.01563,0.0234 -0.01186,0.0184 -0.02352,0.0373 -0.03516,0.0547 -0.0085,0.0132 -0.01705,0.0266 -0.02539,0.0391 -0.09386,0.1401 -0.189544,0.29289 -0.283203,0.43164 -0.0085,0.0127 -0.01694,0.0265 -0.02539,0.0391 -0.01025,0.0153 -0.02102,0.0317 -0.03125,0.0469 -0.0043,0.006 -0.0093,0.0131 -0.01367,0.0195 -0.0046,0.007 -0.0091,0.0147 -0.01367,0.0215 -0.125333,0.18518 -0.246058,0.34604 -0.371094,0.52929 -0.892136,1.30753 -1.780773,2.58802 -2.652344,3.77344 -7.49e-4,7.5e-4 -0.0029,4.4e-4 -0.0039,0.002 v 0.002 c -1.037822,1.41142 -2.059859,2.7404 -3.066406,3.99218 -8.25e-4,7.5e-4 -0.0029,6.7e-4 -0.0039,0.002 v 0.002 0.002 c -1.006402,1.25154 -1.996723,2.42775 -2.96875,3.5293 h -0.002 v 0.002 c -0.07832,0.0886 -0.15231,0.16209 -0.230468,0.25 -0.280392,0.31541 -0.550788,0.59111 -0.828125,0.89453 -0.0025,0.003 -0.0053,0.007 -0.0078,0.01 -0.602739,0.66228 -1.208387,1.33633 -1.794922,1.93945 h -0.0039 v 0.002 c -0.05481,0.0564 -0.105516,0.0985 -0.160156,0.15429 -0.04362,0.0446 -0.08537,0.0807 -0.128906,0.125 -0.06645,0.0676 -0.129075,0.12059 -0.195313,0.1875 -0.01068,0.0108 -0.02058,0.0206 -0.03125,0.0312 -0.0043,0.004 -0.0093,0.007 -0.01367,0.0117 l -0.002,0.002 c -0.04468,0.0451 -0.08822,0.0841 -0.132812,0.1289 -0.812891,0.81581 -1.615345,1.59649 -2.396485,2.3125 -0.0084,0.008 -0.01697,0.0177 -0.02539,0.0254 l -0.002,0.002 c -0.0052,0.005 -0.01045,0.0109 -0.01563,0.0156 -0.0058,0.005 -0.01176,0.0123 -0.01758,0.0176 -0.0052,0.005 -0.01045,0.0109 -0.01563,0.0156 -0.0058,0.005 -0.01176,0.0123 -0.01758,0.0176 -0.0045,0.004 -0.0091,0.01 -0.01367,0.0137 -0.0039,0.004 -0.0078,0.008 -0.01172,0.0117 -0.295231,0.26941 -0.578723,0.50991 -0.869141,0.76563 -0.0056,0.005 -0.01202,0.009 -0.01758,0.0137 -0.0038,0.003 -0.0079,0.008 -0.01172,0.0117 l -0.002,0.002 c -0.01801,0.0158 -0.03474,0.0291 -0.05273,0.0449 -0.02124,0.0186 -0.04128,0.0341 -0.0625,0.0527 -0.01797,0.0157 -0.03478,0.0292 -0.05273,0.0449 -0.02189,0.0191 -0.04259,0.0356 -0.06445,0.0547 -0.01649,0.0144 -0.03248,0.0273 -0.04883,0.041 -0.0017,0.002 -0.0041,0.002 -0.0059,0.004 l -0.002,0.002 c -7.2e-4,5.7e-4 -0.0012,0.003 -0.002,0.004 -0.01791,0.0156 -0.03484,0.0294 -0.05273,0.0449 -0.02435,0.0211 -0.04794,0.0395 -0.07227,0.0606 -0.472542,0.40836 -0.941281,0.81019 -1.40039,1.18359 -0.02257,0.0184 -0.04583,0.0403 -0.06836,0.0586 -0.0087,0.007 -0.01866,0.0144 -0.02734,0.0215 -0.0021,0.002 -0.0038,0.004 -0.0059,0.006 -0.0052,0.004 -0.01043,0.009 -0.01563,0.0137 -0.01487,0.012 -0.03007,0.0271 -0.04492,0.0391 -0.01904,0.0154 -0.03957,0.0335 -0.05859,0.0488 -0.01316,0.0106 -0.02787,0.0226 -0.04102,0.0332 -0.0114,0.009 -0.02376,0.0202 -0.03516,0.0293 -0.321544,0.25804 -0.638531,0.50855 -0.953125,0.75 -0.0065,0.005 -0.01307,0.0107 -0.01953,0.0156 -0.02007,0.0154 -0.03856,0.0276 -0.05859,0.043 -0.01272,0.01 -0.02441,0.0178 -0.03711,0.0274 -0.01313,0.01 -0.02595,0.0173 -0.03906,0.0273 -0.0039,0.003 -0.0078,0.007 -0.01172,0.01 -0.0094,0.007 -0.01995,0.0144 -0.0293,0.0215 -0.0025,0.002 -0.0053,0.004 -0.0078,0.006 -0.01536,0.0117 -0.02959,0.0216 -0.04492,0.0332 -0.01652,0.0125 -0.03234,0.0227 -0.04883,0.0352 -0.37784,0.28597 -0.744013,0.5496 -1.111328,0.8125 -0.02454,0.0175 -0.04968,0.0372 -0.07422,0.0547 -0.02896,0.0206 -0.05895,0.0438 -0.08789,0.0644 -0.0045,0.003 -0.0092,0.007 -0.01367,0.01 l -0.0078,0.006 c -0.02444,0.0173 -0.0498,0.0374 -0.07422,0.0547 -0.01592,0.0112 -0.03292,0.024 -0.04883,0.0352 -0.03397,0.0239 -0.0696,0.0524 -0.103516,0.0762 -0.03358,0.0235 -0.07001,0.0509 -0.103515,0.0742 -0.02097,0.0146 -0.04351,0.0323 -0.06445,0.0469 -0.007,0.005 -0.0145,0.0108 -0.02149,0.0156 -0.01325,0.009 -0.02778,0.0201 -0.04101,0.0293 -0.003,0.002 -0.0068,0.006 -0.0098,0.008 -0.01179,0.008 -0.02338,0.0173 -0.03516,0.0254 -0.02206,0.0153 -0.04468,0.03 -0.06641,0.0449 -0.01573,0.011 -0.03135,0.0225 -0.04687,0.0332 -0.171551,0.12103 -0.344881,0.24611 -0.511719,0.35742 -0.0042,0.003 -0.0095,0.005 -0.01367,0.008 -0.01292,0.009 -0.0242,0.0148 -0.03711,0.0234 -0.01084,0.007 -0.02042,0.0123 -0.03125,0.0195 -0.0088,0.006 -0.01664,0.01 -0.02539,0.0156 -0.0072,0.005 -0.0144,0.007 -0.02148,0.0117 l -0.002,0.002 c -0.01001,0.007 -0.0193,0.011 -0.0293,0.0176 -0.0082,0.005 -0.01521,0.0102 -0.02344,0.0156 -0.01616,0.0107 -0.03077,0.0187 -0.04687,0.0293 -0.29349,0.19339 -0.567856,0.35233 -0.853516,0.53125 -0.151428,0.0925 -0.307461,0.19484 -0.458984,0.2871 -0.09074,0.0547 -0.186849,0.11772 -0.277344,0.17188 -0.09174,0.0548 -0.190153,0.12222 -0.28125,0.17578 -0.04748,0.0279 -0.09921,0.0643 -0.146484,0.0918 -0.08311,0.0486 -0.175568,0.11302 -0.257813,0.16015 -0.0054,0.003 -0.01214,0.009 -0.01758,0.0117 -0.0076,0.004 -0.01581,0.009 -0.02344,0.0137 -0.0054,0.003 -0.01214,0.009 -0.01758,0.0117 -0.0031,0.002 -0.0067,0.006 -0.0098,0.008 l -0.002,0.002 c -0.0031,0.002 -0.0067,0.006 -0.0098,0.008 -1.352789,0.77107 -2.6036047,1.38002 -3.7402345,1.85742 -0.00285,10e-4 -0.00692,0.005 -0.00977,0.006 -0.00673,0.003 -0.013022,0.009 -0.019531,0.0117 -0.0067,0.003 -0.013158,0.005 -0.019531,0.008 -0.00901,0.004 -0.017892,0.008 -0.027344,0.0117 -0.00964,0.004 -0.019268,0.008 -0.029297,0.0117 -0.00262,0.001 -0.00519,3.2e-4 -0.00781,0.002 -1.1144745,0.46272 -2.1166829,0.80088 -2.9980469,1.04688 -0.00223,6.2e-4 -0.00559,0.003 -0.00781,0.004 -0.00528,0.001 -0.0084,2e-5 -0.013672,0.002 -0.00171,4.7e-4 -0.00415,5.8e-4 -0.00586,0.002 -0.00761,0.002 -0.011962,0.004 -0.019531,0.006 -0.010694,0.003 -0.016791,0.003 -0.027344,0.006 -0.449437,0.12235 -0.7776183,0.17135 -1.1640625,0.25195 -0.1135384,0.0211 -0.2511387,0.0567 -0.3652344,0.0781 -0.091871,0.0164 -0.2127868,0.051 -0.3027343,0.0664 -0.1495795,0.026 -0.366186,0.0898 -0.5019532,0.10937 -1.27116635,0.18313 -1.95703121,0.1211 -1.9570312,0.12109 0,0 58.610563,9.94037 73.160157,-33.39843 4.834133,-14.4225 12.986473,-38.73773 21.535156,-64.253913 l -0.0198,-0.09389 v -0.002 -0.002 -0.0039 -0.002 -0.002 -0.0039 -0.0039 l -11.675781,-39.535157 -0.07031,-0.238281 -0.01367,-0.04687 -1.285156,-4.351562 z"
     style="fill:url(#linearGradient82);filter:url(#filter30)"
     id="path593" />
  <path
     d="m 225.14263,30.180437 c -18.28211,-0.02659 -49.09965,4.587403 -59.10937,34.382813 -4.83986,14.439594 -3.42028,9.57962 -12,35.128906 l 0.0215,0.05273 v -0.05273 l 8.73633,21.703124 8.5293,21.18359 C 190.6334,26.337422 239.17388,31.162859 239.17388,31.162859 c 0,0 -5.72109,-0.970337 -14.03125,-0.982422 z"
     style="fill:url(#linear-gradient-2);filter:url(#filter31)"
     id="path592" />
  <path
     d="m 78.423883,24.229266 c -1.030507,0.01294 -2.056426,0.110118 -3.078125,0.251953 -0.0013,1.81e-4 -0.0026,-1.81e-4 -0.0039,0 -0.259121,0.03671 -0.518954,0.06102 -0.777344,0.105468 -0.0033,5.53e-4 -0.0065,0.0014 -0.0098,0.002 -0.220183,0.03779 -0.438569,0.09191 -0.658203,0.134765 -0.445911,0.08819 -0.89272,0.175249 -1.335938,0.285156 -0.13006,0.03192 -0.258896,0.07144 -0.388672,0.105469 -0.0032,8.38e-4 -0.0066,0.0011 -0.0098,0.002 -0.499441,0.131239 -0.996806,0.272703 -1.492188,0.429688 -0.0019,6.13e-4 -0.0039,0.0013 -0.0059,0.002 -0.0039,0.0012 -0.0078,0.0027 -0.01172,0.0039 -0.848683,0.267674 -1.686725,0.592785 -2.521484,0.929688 -5.46e-4,2.21e-4 -0.0014,-2.22e-4 -0.002,0 -0.0014,4.27e-4 -0.0025,0.0014 -0.0039,0.002 -0.0013,5.44e-4 -0.0026,0.0014 -0.0039,0.002 -0.0033,0.0013 -0.0065,0.0026 -0.0098,0.0039 -0.970489,0.394294 -1.929222,0.834803 -2.876953,1.310547 -0.236644,0.118249 -0.475864,0.226789 -0.710937,0.349609 -0.0093,0.0049 -0.01809,0.01076 -0.02734,0.01563 -0.0021,0.0011 -0.0038,0.0028 -0.0059,0.0039 -0.0018,9.35e-4 -0.0041,10e-4 -0.0059,0.002 -0.0014,4.96e-4 -0.0026,0.0013 -0.0039,0.002 -0.0105,0.0057 -0.02073,0.01203 -0.03125,0.01758 -1.007698,0.531307 -1.997234,1.109321 -2.972656,1.714844 -0.420393,0.260649 -0.832833,0.535484 -1.246094,0.808594 -0.002,0.0013 -0.0039,0.0026 -0.0059,0.0039 l -0.002,0.002 c -0.002,0.0013 -0.0039,0.0026 -0.0059,0.0039 -0.0012,7.95e-4 -0.0027,0.0012 -0.0039,0.002 -0.0013,6.02e-4 -0.0027,0.0012 -0.0039,0.002 -0.0027,0.0018 -0.0051,0.0041 -0.0078,0.0059 -0.0059,0.0039 -0.0117,0.0078 -0.01758,0.01172 l -0.002,0.002 c -0.002,0.0013 -0.0039,0.0026 -0.0059,0.0039 -0.0039,0.0026 -0.0078,0.0052 -0.01172,0.0078 -0.647604,0.428178 -1.288047,0.865617 -1.917969,1.31836 -0.403684,0.289618 -0.807201,0.578897 -1.203125,0.876953 -4.1e-4,3.09e-4 -0.0015,-3.09e-4 -0.002,0 -0.838769,0.632726 -1.661912,1.279628 -2.462891,1.941406 -0.138402,0.114184 -0.284659,0.223044 -0.421875,0.337891 -1.057204,0.88616 -2.081505,1.790274 -3.0625,2.699219 l 0.0293,-0.08789 c -0.03207,0.02956 -0.06763,0.05832 -0.09961,0.08789 L 0.2734925,189.70192 c 0,0 43.8609445,3.94643 80.6699225,-145.109373 l 14,47.380859 8.999995,27.689454 -0.1289,-0.29102 11.76953,36.71094 c 2.47056,8.1395 6.61989,15.67156 12.17969,22.10938 15.17157,17.12041 44.18779,16.16877 58.97461,0.0234 -0.0284,0.005 -0.0556,0.005 -0.084,0.01 -0.007,0.001 -0.0129,7.9e-4 -0.0195,0.002 -0.0388,0.003 -0.0777,0.007 -0.11719,0.0137 -1.03861,0.17934 -2.06636,0.3143 -3.07617,0.3711 -0.0714,0.004 -0.13971,-0.005 -0.21094,-0.002 -1.03352,0.0495 -2.05427,0.0473 -3.05859,-0.0273 -0.003,-1.9e-4 -0.005,1.9e-4 -0.008,0 -1.04105,-0.0741 -2.06537,-0.22122 -3.07618,-0.42383 -1.02084,-0.20812 -2.02641,-0.48229 -3.01757,-0.8164 -0.99165,-0.33428 -1.96656,-0.73225 -2.92969,-1.1875 -0.12745,-0.0602 -0.25195,-0.13301 -0.37891,-0.19532 -0.003,-0.001 -0.005,-0.003 -0.008,-0.004 -0.83099,-0.40525 -1.65233,-0.85186 -2.46289,-1.34375 -10e-4,-6.2e-4 -0.003,-6.4e-4 -0.004,-0.002 l -0.002,-0.002 c -0.11458,-0.07 -0.22761,-0.14709 -0.3418,-0.21875 -0.84652,-0.52842 -1.68264,-1.10135 -2.50781,-1.7207 -0.002,-0.002 -0.004,-0.003 -0.006,-0.004 l -0.002,-0.002 c -7.4e-4,-5.6e-4 -0.001,-0.001 -0.002,-0.002 -0.0385,-0.029 -0.0768,-0.0587 -0.11524,-0.0879 -0.004,-0.003 -0.009,-0.006 -0.0137,-0.01 -0.32894,-0.24924 -0.64933,-0.53422 -0.97266,-0.80664 -0.0143,-0.0116 -0.0288,-0.0233 -0.043,-0.0352 -0.004,-0.003 -0.008,-0.007 -0.0117,-0.01 -0.003,-0.002 -0.005,-0.004 -0.008,-0.006 -0.003,-0.002 -0.009,-0.005 -0.0117,-0.008 -4.3e-4,-4.4e-4 -0.001,-0.002 -0.002,-0.004 -3.2e-4,-2.6e-4 3.2e-4,-0.002 0,-0.002 l -0.002,-0.002 c -0.003,-0.003 -0.009,-0.005 -0.0117,-0.008 -0.0189,-0.0154 -0.0378,-0.0314 -0.0566,-0.0469 -0.10883,-0.0891 -0.21749,-0.18011 -0.32617,-0.26954 -0.25133,-0.21027 -0.50453,-0.40843 -0.75391,-0.62695 -0.0967,-0.0847 -0.19658,-0.15627 -0.29297,-0.24219 l -0.002,-0.002 -0.002,-0.002 c -0.14995,-0.13373 -0.29802,-0.27544 -0.44727,-0.41211 -0.005,-0.005 -0.0105,-0.009 -0.0156,-0.0137 -0.0118,-0.0109 -0.0234,-0.0223 -0.0352,-0.0332 -0.70823,-0.64761 -1.40866,-1.3287 -2.10156,-2.04101 -6.4e-4,-6.6e-4 -0.001,-0.001 -0.002,-0.002 -0.11784,-0.12164 -0.2361,-0.24176 -0.35351,-0.36523 l -0.004,-0.004 c -0.006,-0.006 -0.0116,-0.0113 -0.0176,-0.0176 h -0.002 l -0.01,-0.01 c -0.13961,-0.14645 -0.27651,-0.30596 -0.41406,-0.46094 -0.1727,-0.18579 -0.34189,-0.38449 -0.51367,-0.57422 -0.30253,-0.33413 -0.60656,-0.66366 -0.90625,-1.00976 -0.0916,-0.10584 -0.18595,-0.20166 -0.27734,-0.3086 -0.007,-0.009 -0.014,-0.0186 -0.0215,-0.0273 -0.003,-0.004 -0.006,-0.008 -0.01,-0.0117 -3.2e-4,-3.7e-4 3.2e-4,-0.002 0,-0.002 l -0.002,-0.002 c -0.24503,-0.28738 -0.4873,-0.58758 -0.73047,-0.88282 l -0.006,-0.006 c -9.9e-4,-0.001 -0.003,-0.002 -0.004,-0.004 -0.0124,-0.015 -0.0248,-0.0299 -0.0371,-0.0449 -0.0162,-0.0197 -0.0327,-0.0389 -0.0488,-0.0586 -0.35728,-0.43584 -0.71113,-0.88529 -1.06445,-1.33789 -0.002,-0.002 -0.008,-0.007 -0.01,-0.01 -0.009,-0.0111 -0.0167,-0.024 -0.0254,-0.0352 -0.006,-0.008 -0.0114,-0.0175 -0.0176,-0.0254 -0.003,-0.004 -0.006,-0.009 -0.01,-0.0137 l -0.002,-0.002 c -0.004,-0.005 -0.008,-0.0106 -0.0117,-0.0156 -0.002,-0.003 -0.009,-0.007 -0.0117,-0.01 -0.0123,-0.0158 -0.0248,-0.0331 -0.0371,-0.0488 -0.0148,-0.0191 -0.0281,-0.0414 -0.043,-0.0605 -0.90087,-1.16202 -1.79167,-2.36947 -2.66797,-3.63477 -0.0451,-0.0651 -0.0917,-0.12212 -0.13672,-0.1875 -0.0182,-0.0264 -0.0365,-0.0497 -0.0547,-0.0762 -0.001,-0.002 -0.003,-0.002 -0.004,-0.004 -0.0146,-0.0213 -0.0303,-0.0391 -0.0449,-0.0605 -0.0117,-0.017 -0.0234,-0.0318 -0.0352,-0.0488 -0.008,-0.0123 -0.017,-0.0229 -0.0254,-0.0352 -0.0189,-0.0276 -0.0397,-0.0504 -0.0586,-0.0781 -0.0127,-0.0186 -0.0264,-0.0341 -0.0391,-0.0527 -0.004,-0.006 -0.008,-0.0119 -0.0117,-0.0176 -0.008,-0.0114 -0.0157,-0.0238 -0.0234,-0.0352 -0.009,-0.0126 -0.0168,-0.0264 -0.0254,-0.0391 -0.002,-0.003 -0.004,-0.007 -0.006,-0.01 -0.005,-0.007 -0.009,-0.0146 -0.0137,-0.0215 -7.9e-4,-0.001 -9e-4,-0.003 -0.002,-0.004 -0.0179,-0.0264 -0.0348,-0.0556 -0.0527,-0.082 -0.10162,-0.1543 -0.20264,-0.31451 -0.30469,-0.4668 -0.0351,-0.0543 -0.0701,-0.10906 -0.10547,-0.16211 -0.0829,-0.12906 -0.16652,-0.25651 -0.25,-0.38281 -0.18761,-0.29168 -0.37659,-0.57676 -0.56445,-0.86719 -0.20357,-0.31755 -0.41056,-0.62077 -0.61328,-0.9414 -0.16875,-0.26633 -0.34205,-0.51295 -0.50977,-0.78321 -0.67352,-1.08529 -1.336,-2.21205 -1.99609,-3.35351 -0.003,-0.005 -0.009,-0.0103 -0.0117,-0.0156 -0.0209,-0.0361 -0.0416,-0.0731 -0.0625,-0.10937 -0.0164,-0.0284 -0.0325,-0.0575 -0.0488,-0.0859 -0.0145,-0.0251 -0.0285,-0.051 -0.043,-0.0762 -0.0119,-0.0207 -0.0232,-0.0418 -0.0351,-0.0625 -0.001,-0.003 -0.002,-0.007 -0.004,-0.01 -0.002,-0.003 -0.004,-0.006 -0.006,-0.01 -0.01,-0.0174 -0.0193,-0.0353 -0.0293,-0.0527 -0.007,-0.0124 -0.0143,-0.0248 -0.0215,-0.0371 -0.0124,-0.0216 -0.0249,-0.043 -0.0371,-0.0645 -0.01,-0.0169 -0.0196,-0.0338 -0.0293,-0.0508 -0.004,-0.007 -0.008,-0.0144 -0.0117,-0.0215 -0.0134,-0.023 -0.0278,-0.0452 -0.041,-0.0684 -0.0157,-0.0273 -0.0312,-0.0546 -0.0469,-0.082 -0.003,-0.005 -0.007,-0.0106 -0.01,-0.0156 -0.004,-0.007 -0.008,-0.0129 -0.0117,-0.0195 -0.0194,-0.034 -0.0392,-0.0675 -0.0586,-0.10156 -0.0267,-0.047 -0.0534,-0.0936 -0.0801,-0.14063 -0.0236,-0.0417 -0.0467,-0.0832 -0.0703,-0.125 -0.0144,-0.0255 -0.0286,-0.0507 -0.043,-0.0762 -0.0369,-0.0653 -0.0726,-0.13573 -0.10938,-0.20117 -0.0505,-0.0897 -0.1,-0.18542 -0.15039,-0.27539 -0.0634,-0.11329 -0.12417,-0.23397 -0.1875,-0.34766 -0.0157,-0.0282 -0.0312,-0.0577 -0.0469,-0.0859 -0.027,-0.0486 -0.0531,-0.0998 -0.0801,-0.14844 -0.006,-0.0109 -0.0116,-0.0223 -0.0176,-0.0332 -0.0655,-0.11829 -0.12982,-0.24096 -0.19531,-0.35937 -0.0448,-0.0815 -0.0899,-0.16466 -0.13477,-0.2461 -0.0667,-0.1218 -0.13245,-0.24573 -0.19922,-0.36718 -0.3082,-0.56642 -0.62032,-1.12139 -0.92578,-1.69922 -0.007,-0.0125 -0.0129,-0.0246 -0.0195,-0.0371 -0.0166,-0.0313 -0.0342,-0.0604 -0.0508,-0.0918 -0.0157,-0.0298 -0.0312,-0.0581 -0.0469,-0.0879 -0.007,-0.0133 -0.0144,-0.0257 -0.0215,-0.0391 -0.009,-0.0173 -0.0182,-0.0335 -0.0273,-0.0508 -0.0143,-0.0272 -0.0287,-0.0529 -0.043,-0.0801 -0.006,-0.0113 -0.0117,-0.0219 -0.0176,-0.0332 -0.012,-0.0228 -0.0251,-0.0436 -0.0371,-0.0664 -0.0122,-0.0233 -0.0249,-0.045 -0.0371,-0.0684 -0.22973,-0.43713 -0.45535,-0.88867 -0.68359,-1.33203 -0.0234,-0.0457 -0.0469,-0.0929 -0.0703,-0.13867 -0.0415,-0.081 -0.0816,-0.16497 -0.12304,-0.2461 -0.0164,-0.0322 -0.0324,-0.0653 -0.0488,-0.0977 -0.0283,-0.0555 -0.0557,-0.11247 -0.084,-0.16797 -0.004,-0.007 -0.008,-0.0143 -0.0117,-0.0215 -0.0343,-0.0676 -0.0692,-0.13561 -0.10351,-0.20312 -0.0691,-0.13638 -0.13793,-0.27404 -0.20703,-0.41016 -0.0377,-0.0749 -0.0755,-0.14997 -0.11328,-0.22461 -0.0414,-0.0824 -0.0834,-0.16431 -0.125,-0.24609 -0.0787,-0.1574 -0.15782,-0.31064 -0.23633,-0.46875 -0.0148,-0.0296 -0.0302,-0.0582 -0.0449,-0.0879 -0.0113,-0.0228 -0.0219,-0.0455 -0.0332,-0.0684 -0.0144,-0.0289 -0.0286,-0.057 -0.043,-0.0859 -0.002,-0.004 -0.004,-0.008 -0.006,-0.0117 -0.0102,-0.0205 -0.0214,-0.0399 -0.0312,-0.0605 -0.01,-0.0203 -0.0193,-0.0422 -0.0293,-0.0625 -0.006,-0.0118 -0.0117,-0.0213 -0.0176,-0.0332 -0.0108,-0.0219 -0.0224,-0.0429 -0.0332,-0.0644 -0.0143,-0.029 -0.0287,-0.0569 -0.043,-0.0859 -1.34025,-2.71126 -2.65483,-5.52835 -3.94922,-8.42969 -0.01,-0.0221 -0.0195,-0.0443 -0.0293,-0.0664 -0.0122,-0.0274 -0.0248,-0.0547 -0.0371,-0.082 -0.003,-0.006 -0.004,-0.0119 -0.006,-0.0176 -0.002,-0.005 -0.006,-0.0104 -0.008,-0.0156 -0.0161,-0.0359 -0.0329,-0.0714 -0.0488,-0.10742 -0.0112,-0.0253 -0.022,-0.0508 -0.0332,-0.0762 -1.09357,-2.46068 -2.15874,-5.03884 -3.22461,-7.61328 -0.0175,-0.0423 -0.0353,-0.0847 -0.0527,-0.12695 -0.0271,-0.0658 -0.0549,-0.13157 -0.082,-0.19727 -0.0321,-0.078 -0.0636,-0.15652 -0.0957,-0.23437 -0.015,-0.0365 -0.0299,-0.0729 -0.0449,-0.10938 -0.0118,-0.0287 -0.0234,-0.0573 -0.0352,-0.0859 l -0.0312,-0.0762 c -0.0347,-0.0847 -0.0687,-0.1695 -0.10351,-0.25391 -0.0147,-0.036 -0.0302,-0.0715 -0.0449,-0.10742 -0.0334,-0.0817 -0.0661,-0.16297 -0.0996,-0.24414 -0.12725,-0.31206 -0.25787,-0.61619 -0.38477,-0.92969 -0.0152,-0.0373 -0.0298,-0.0739 -0.0449,-0.11132 -0.0155,-0.0381 -0.0314,-0.0751 -0.0469,-0.11328 -0.0272,-0.0669 -0.0549,-0.13201 -0.082,-0.19922 -0.0106,-0.0262 -0.0208,-0.0519 -0.0312,-0.0781 -0.004,-0.01 -0.008,-0.0195 -0.0117,-0.0293 -0.007,-0.0172 -0.0146,-0.0336 -0.0215,-0.0508 -0.0211,-0.0521 -0.0435,-0.10206 -0.0644,-0.15429 -0.009,-0.0216 -0.0167,-0.0431 -0.0254,-0.0645 -0.0101,-0.0252 -0.0193,-0.049 -0.0293,-0.0742 -1.1945,-2.96037 -2.37538,-5.97607 -3.54297,-9.04492 -0.0233,-0.0614 -0.047,-0.12216 -0.0703,-0.18359 -0.54702,-1.43945 -1.07873,-2.93863 -1.6211,-4.39649 -0.3535,-0.95375 -0.70496,-1.9159 -1.05859,-2.86914 -0.0199,-0.0544 -0.0405,-0.10784 -0.0606,-0.16211 -0.32951,-0.90086 -0.66067,-1.79023 -0.99023,-2.68945 -0.0656,-0.18106 -0.13373,-0.35584 -0.19922,-0.53711 -0.009,-0.0256 -0.0181,-0.0505 -0.0273,-0.0762 -0.004,-0.0111 -0.008,-0.0222 -0.0117,-0.0332 -0.0115,-0.0306 -0.0238,-0.0606 -0.0352,-0.0918 L 111.17388,58.201922 C 101.7976,32.346712 89.902372,24.085081 78.423883,24.229266 Z"
     style="fill:url(#linear-gradient-3);filter:url(#filter32)"
     id="path591" />
  <path
     d="m 89.503962,1.0319999 -1,0.080078 c -1.119986,0.09 -2.239624,0.2203934 -3.34961,0.4003906 h -0.339844 c -0.459986,0.08 -0.920859,0.1795327 -1.380859,0.2695313 l -1,0.2011719 c -0.439986,0.1 -0.870795,0.2200795 -1.300781,0.3300781 l -1,0.2695313 c -0.42,0.1199972 -0.839766,0.2606264 -1.259766,0.390625 l -1,0.3398437 c -0.409986,0.1399986 -0.80875,0.2989858 -1.21875,0.4589844 l -1,0.4003906 c -0.399986,0.1599975 -0.789701,0.3395341 -1.179687,0.5195313 l -1,0.4707032 -1.140625,0.5800781 -1,0.5292969 -1.089844,0.640625 -0.951172,0.5996093 -1,0.7011719 -0.919922,0.6582032 c -0.329986,0.2499958 -0.67,0.5017229 -1,0.7617187 l -0.878906,0.7285156 c -0.32,0.27 -0.629453,0.540313 -0.939453,0.820313 -0.31,0.279986 -0.560092,0.530781 -0.830078,0.800781 -0.27,0.27 -0.59086,0.578906 -0.88086,0.878906 -0.289986,0.3 -0.529062,0.581094 -0.789062,0.871094 -0.26,0.29 -0.550547,0.609701 -0.810547,0.929687 -0.26,0.32 -0.500248,0.630014 -0.740234,1 -0.24,0.37 -0.500469,0.640014 -0.730469,1 -0.23,0.36 -0.469219,0.700782 -0.699219,1.050782 -0.23,0.349986 -0.440391,0.65 -0.650391,1 -0.209986,0.349986 -0.459453,0.80875 -0.689453,1.21875 -0.229986,0.409986 -0.361484,0.619453 -0.521484,0.939453 -0.784236,1.527742 -1.452804,3.112472 -2,4.740234 L 51.093805,37.932391 C 67.023581,23.172587 93.604383,9.5326008 111.2442,58.201922 c 20.83958,57.499158 39.30016,126.709998 75.5996,119.999998 3.20532,-3.50081 5.63866,-7.63591 7.14063,-12.13867 12.14986,-36.62944 35.90975,-107.251167 43.09961,-128.630859 l 0.0898,-0.240235 2,-6 c 0,0 -48.53012,-4.86848 -67.83984,111.419924 l -8.54297,-21.2168 -8.73633,-21.703124 v 0.111328 l -0.25,-0.78125 L 149.02345,84.102312 145.22462,72.282 133.45314,35.573016 c -2.48207,-8.152468 -6.64374,-15.695343 -12.21875,-22.140625 -0.55333,-0.62667 -1.12737,-1.230561 -1.7207,-1.810547 -0.21,-0.2 -0.42063,-0.388125 -0.64063,-0.578125 -0.39,-0.37 -0.78945,-0.730079 -1.18945,-1.0800785 -0.4,-0.3499944 -0.53078,-0.4206278 -0.80078,-0.640625 -0.27,-0.2199972 -0.73891,-0.6008635 -1.12891,-0.8808593 -0.39,-0.2799972 -0.59062,-0.4191435 -0.89062,-0.6191407 -0.3,-0.1999972 -0.73928,-0.5100028 -1.11914,-0.75 -0.38,-0.2399958 -0.64014,-0.3900809 -1,-0.5800781 -0.36,-0.1899972 -0.75086,-0.4403934 -1.13086,-0.6503906 l -1,-0.5292969 -1.13864,-0.5605469 -1.06054,-0.4707031 -1.15039,-0.4785156 -1.09961,-0.4101563 -1.16016,-0.4003906 -1.14062,-0.3496094 -1.16993,-0.3203125 -1.16992,-0.2910156 -1.17969,-0.25 -1.189448,-0.21875 L 97.974665,1.3835624 96.753962,1.2234061 95.58404,1.1218436 94.343805,1.0319999 h -1.160156 -1.259766 -1.11914 z"
     style="fill:url(#linearGradient10960);filter:url(#filter28)"
     id="path590" />
  <metadata
     id="metadata82">
    <rdf:RDF>
      <cc:Work
         rdf:about="">
        <dc:title>NOHR AI</dc:title>
        <dc:date>2024</dc:date>
        <dc:creator>
          <cc:Agent>
            <dc:title>Johann Kroeger</dc:title>
          </cc:Agent>
        </dc:creator>
        <dc:rights>
          <cc:Agent>
            <dc:title>Johann Kroeger</dc:title>
          </cc:Agent>
        </dc:rights>
        <dc:publisher>
          <cc:Agent>
            <dc:title>Johann Kroeger</dc:title>
          </cc:Agent>
        </dc:publisher>
        <dc:identifier>GOD</dc:identifier>
      </cc:Work>
    </rdf:RDF>
  </metadata>
</svg>
