<?xml version="1.0" encoding="UTF-8" standalone="no"?>
<svg
   id="Layer_1"
   data-name="Layer 1"
   viewBox="0 0 239.95599 191.18889"
   version="1.1"
   width="239.95599"
   height="191.1889"
   xmlns:xlink="http://www.w3.org/1999/xlink"
   xmlns="http://www.w3.org/2000/svg"
   xmlns:svg="http://www.w3.org/2000/svg"
   xmlns:rdf="http://www.w3.org/1999/02/22-rdf-syntax-ns#"
   xmlns:cc="http://creativecommons.org/ns#"
   xmlns:dc="http://purl.org/dc/elements/1.1/">
  <title
     id="title82">NOHR AI</title>
  <defs
     id="defs6">
    <linearGradient
       id="linearGradient12"
       x1="358.44"
       y1="233.78"
       x2="315.34"
       y2="363.07999"
       gradientUnits="userSpaceOnUse">
      <stop
         offset="0"
         stop-color="#693a8a"
         id="stop7"
         style="stop-color:#7f456b;stop-opacity:1;" />
      <stop
         offset="0.20999999"
         stop-color="#913a8d"
         id="stop8"
         style="stop-color:#92288d;stop-opacity:1;" />
      <stop
         offset="0.45"
         stop-color="#b93991"
         id="stop9" />
      <stop
         offset="0.67"
         stop-color="#d53993"
         id="stop10" />
      <stop
         offset="0.86"
         stop-color="#e73994"
         id="stop11" />
      <stop
         offset="1"
         stop-color="#ed3995"
         id="stop12" />
    </linearGradient>
    <style
       id="style1">.cls-1{fill:#f1f2f2;}.cls-2{fill:url(#linear-gradient);}.cls-3{fill:url(#linear-gradient-2);}.cls-4{fill:url(#linear-gradient-3);}.cls-5{fill:url(#linear-gradient-4);}</style>
    <linearGradient
       id="linear-gradient"
       x1="358.44"
       y1="233.78"
       x2="315.34"
       y2="363.07999"
       gradientUnits="userSpaceOnUse">
      <stop
         offset="0"
         stop-color="#693a8a"
         id="stop1" />
      <stop
         offset="0.21"
         stop-color="#913a8d"
         id="stop2" />
      <stop
         offset="0.45"
         stop-color="#b93991"
         id="stop3" />
      <stop
         offset="0.67"
         stop-color="#d53993"
         id="stop4" />
      <stop
         offset="0.86"
         stop-color="#e73994"
         id="stop5" />
      <stop
         offset="1"
         stop-color="#ed3995"
         id="stop6" />
    </linearGradient>
    <linearGradient
       id="linear-gradient-2"
       x1="459.79001"
       y1="307.73001"
       x2="490.76999"
       y2="205.37"
       xlink:href="#linear-gradient"
       gradientTransform="translate(-284.276,-172.568)" />
    <linearGradient
       id="linear-gradient-3"
       x1="474.59"
       y1="326.79999"
       x2="253.71001"
       y2="256.76001"
       xlink:href="#linear-gradient"
       gradientTransform="translate(-284.276,-172.568)" />
    <linearGradient
       id="linear-gradient-4"
       x1="584.71997"
       y1="320.06"
       x2="332.85999"
       y2="204.23"
       xlink:href="#linearGradient12"
       gradientTransform="translate(-284.276,-172.568)" />
    <filter
       style="color-interpolation-filters:sRGB"
       id="filter28"
       x="-0.004210974"
       y="-0.0058100696"
       width="1.0084219"
       height="1.0116201">
      <feGaussianBlur
         stdDeviation="0.11 0.11"
         result="fbSourceGraphic"
         id="feGaussianBlur28" />
      <feColorMatrix
         result="fbSourceGraphicAlpha"
         in="fbSourceGraphic"
         values="0 0 0 -1 0 0 0 0 -1 0 0 0 0 -1 0 0 0 0 1 0"
         id="feColorMatrix28" />
      <feGaussianBlur
         id="feGaussianBlur29"
         stdDeviation="0.11 0.11"
         result="fbSourceGraphic"
         in="fbSourceGraphic" />
      <feColorMatrix
         result="fbSourceGraphicAlpha"
         in="fbSourceGraphic"
         values="0 0 0 -1 0 0 0 0 -1 0 0 0 0 -1 0 0 0 0 1 0"
         id="feColorMatrix32" />
      <feGaussianBlur
         id="feGaussianBlur33"
         stdDeviation="0.11 0.21"
         result="fbSourceGraphic"
         in="fbSourceGraphic" />
      <feColorMatrix
         result="fbSourceGraphicAlpha"
         in="fbSourceGraphic"
         values="0 0 0 -1 0 0 0 0 -1 0 0 0 0 -1 0 0 0 0 1 0"
         id="feColorMatrix74" />
      <feConvolveMatrix
         id="feConvolveMatrix74"
         order="3 3"
         kernelMatrix="0 -0.15 0 -0.15 1.6 -0.15 0 -0.15 0"
         divisor="1"
         in="fbSourceGraphic"
         targetX="1"
         targetY="1"
         result="fbSourceGraphic" />
      <feColorMatrix
         result="fbSourceGraphicAlpha"
         in="fbSourceGraphic"
         values="0 0 0 -1 0 0 0 0 -1 0 0 0 0 -1 0 0 0 0 1 0"
         id="feColorMatrix78" />
      <feConvolveMatrix
         id="feConvolveMatrix78"
         targetY="1"
         targetX="1"
         in="fbSourceGraphic"
         divisor="1"
         kernelMatrix="0 -0.3 0 -0.3 2.2 -0.3 0 -0.3 0"
         order="3 3"
         result="result1" />
      <feBlend
         id="feBlend78"
         in2="fbSourceGraphic"
         mode="normal"
         result="result2" />
    </filter>
    <filter
       style="color-interpolation-filters:sRGB"
       id="filter30"
       x="-0.0027871621"
       y="-0.0034498595"
       width="1.0055743"
       height="1.0068997">
      <feGaussianBlur
         stdDeviation="0.11 0.21"
         result="fbSourceGraphic"
         id="feGaussianBlur30" />
      <feColorMatrix
         result="fbSourceGraphicAlpha"
         in="fbSourceGraphic"
         values="0 0 0 -1 0 0 0 0 -1 0 0 0 0 -1 0 0 0 0 1 0"
         id="feColorMatrix71" />
      <feConvolveMatrix
         id="feConvolveMatrix71"
         order="3 3"
         kernelMatrix="0 -0.15 0 -0.15 1.6 -0.15 0 -0.15 0"
         divisor="1"
         in="fbSourceGraphic"
         targetX="1"
         targetY="1"
         result="fbSourceGraphic" />
      <feColorMatrix
         result="fbSourceGraphicAlpha"
         in="fbSourceGraphic"
         values="0 0 0 -1 0 0 0 0 -1 0 0 0 0 -1 0 0 0 0 1 0"
         id="feColorMatrix75" />
      <feConvolveMatrix
         id="feConvolveMatrix75"
         targetY="1"
         targetX="1"
         in="fbSourceGraphic"
         divisor="1"
         kernelMatrix="0 -0.3 0 -0.3 2.2 -0.3 0 -0.3 0"
         order="3 3"
         result="result1" />
      <feBlend
         id="feBlend75"
         in2="fbSourceGraphic"
         mode="normal"
         result="result2" />
    </filter>
    <filter
       style="color-interpolation-filters:sRGB"
       id="filter31"
       x="-0.0031007752"
       y="-0.0044826735"
       width="1.0062016"
       height="1.0089653">
      <feGaussianBlur
         stdDeviation="0.11 0.21"
         result="fbSourceGraphic"
         id="feGaussianBlur31" />
      <feColorMatrix
         result="fbSourceGraphicAlpha"
         in="fbSourceGraphic"
         values="0 0 0 -1 0 0 0 0 -1 0 0 0 0 -1 0 0 0 0 1 0"
         id="feColorMatrix72" />
      <feConvolveMatrix
         id="feConvolveMatrix72"
         order="3 3"
         kernelMatrix="0 -0.15 0 -0.15 1.6 -0.15 0 -0.15 0"
         divisor="1"
         in="fbSourceGraphic"
         targetX="1"
         targetY="1"
         result="fbSourceGraphic" />
      <feColorMatrix
         result="fbSourceGraphicAlpha"
         in="fbSourceGraphic"
         values="0 0 0 -1 0 0 0 0 -1 0 0 0 0 -1 0 0 0 0 1 0"
         id="feColorMatrix76" />
      <feConvolveMatrix
         id="feConvolveMatrix76"
         targetY="1"
         targetX="1"
         in="fbSourceGraphic"
         divisor="1"
         kernelMatrix="0 -0.3 0 -0.3 2.2 -0.3 0 -0.3 0"
         order="3 3"
         result="result1" />
      <feBlend
         id="feBlend76"
         in2="fbSourceGraphic"
         mode="normal"
         result="result2" />
    </filter>
    <filter
       style="color-interpolation-filters:sRGB"
       id="filter32"
       x="-0.0014156255"
       y="-0.0030278338"
       width="1.0028313"
       height="1.0060557">
      <feGaussianBlur
         stdDeviation="0.11 0.21"
         result="fbSourceGraphic"
         id="feGaussianBlur32" />
      <feColorMatrix
         result="fbSourceGraphicAlpha"
         in="fbSourceGraphic"
         values="0 0 0 -1 0 0 0 0 -1 0 0 0 0 -1 0 0 0 0 1 0"
         id="feColorMatrix73" />
      <feConvolveMatrix
         id="feConvolveMatrix73"
         order="3 3"
         kernelMatrix="0 -0.15 0 -0.15 1.6 -0.15 0 -0.15 0"
         divisor="1"
         in="fbSourceGraphic"
         targetX="1"
         targetY="1"
         result="fbSourceGraphic" />
      <feColorMatrix
         result="fbSourceGraphicAlpha"
         in="fbSourceGraphic"
         values="0 0 0 -1 0 0 0 0 -1 0 0 0 0 -1 0 0 0 0 1 0"
         id="feColorMatrix77" />
      <feConvolveMatrix
         id="feConvolveMatrix77"
         targetY="1"
         targetX="1"
         in="fbSourceGraphic"
         divisor="1"
         kernelMatrix="0 -0.3 0 -0.3 2.2 -0.3 0 -0.3 0"
         order="3 3"
         result="result1" />
      <feBlend
         id="feBlend77"
         in2="fbSourceGraphic"
         mode="normal"
         result="result2" />
    </filter>
    <linearGradient
       xlink:href="#linear-gradient"
       id="linearGradient82"
       gradientUnits="userSpaceOnUse"
       x1="358.44"
       y1="233.78"
       x2="315.34"
       y2="363.07999"
       gradientTransform="translate(-284.276,-172.568)" />
  </defs>
  <path
     class="cls-2"
     d="m 0.26399999,189.702 c 0,0 58.61000001,9.94 73.16000001,-33.4 4.84,-14.44 13,-38.78 21.56,-64.33 l -14,-47.38 C 44.114,193.642 0.26399999,189.702 0.26399999,189.702 Z"
     id="path14"
     style="fill:url(#linearGradient82);filter:url(#filter30)" />
  <path
     class="cls-3"
     d="m 166.024,64.562 c -4.84,14.44 -3.42,9.58 -12,35.13 l 17.28,42.92 c 19.31,-116.28 67.86,-111.45 67.86,-111.45 0,0 -58.58,-9.94 -73.14,33.4 z"
     id="path15"
     style="fill:url(#linear-gradient-2);filter:url(#filter31)" />
  <path
     class="cls-4"
     d="m 111.164,58.202 c -17.65,-48.6700001 -44.22,-35 -60.15,-20.27 L 0.26399999,189.702 c 0,0 43.86000001,3.95 80.67000001,-145.11 l 14,47.38 9,27.69 -0.13,-0.29 11.77,36.71 a 60.88,60.88 0 0 0 12.18,22.11 c 15.18,17.13 44.22,16.17 59,0 -36.29,6.72 -54.75,-62.49 -75.59,-119.99 z"
     id="path16"
     style="fill:url(#linear-gradient-3);filter:url(#filter32)" />
  <path
     class="cls-5"
     d="M 171.324,142.612 162.78134,121.39376 154.044,99.692 v 0.11 l -0.25,-0.78 v 0 l -4.78,-14.92 -3.8,-11.82 -11.77,-36.71 c -2.48207,-8.15258 -6.64485,-15.69462 -12.22,-22.14 -0.55333,-0.62667 -1.12667,-1.23 -1.72,-1.81 -0.21,-0.2 -0.42,-0.39 -0.64,-0.58 -0.39,-0.37 -0.79,-0.73 -1.19,-1.0800001 -0.4,-0.35 -0.53,-0.42 -0.8,-0.64 -0.27,-0.22 -0.74,-0.6 -1.13,-0.88 -0.39,-0.28 -0.59,-0.42 -0.89,-0.62 -0.3,-0.2 -0.74,-0.51 -1.12,-0.75 -0.38,-0.24 -0.64,-0.39 -1,-0.58 -0.36,-0.19 -0.75,-0.44 -1.13,-0.65 l -1,-0.53 -1.14,-0.56 -1.06,-0.47 -1.15,-0.48 -1.1,-0.41 -1.16,-0.4 -1.14,-0.35 -1.17,-0.32 -1.17,-0.29 -1.18,-0.25 -1.19,-0.22 -1.18,-0.18 -1.22,-0.16 -1.17,-0.1 -1.24,-0.09 h -1.16 -1.26 -1.12 -1.3 l -1,0.08 c -1.12,0.09 -2.24,0.22 -3.35,0.4 h -0.34 c -0.46,0.08 -0.92,0.18 -1.38,0.27 l -1,0.2 c -0.44,0.1 -0.87,0.22 -1.3,0.33 l -1,0.27 c -0.42,0.12 -0.84,0.26 -1.26,0.39 l -1,0.34 c -0.41,0.14 -0.81,0.3 -1.22,0.46 l -1,0.4 c -0.4,0.16 -0.79,0.34 -1.18,0.52 l -1,0.47 -1.14,0.58 -1,0.53 -1.09,0.64 -0.95,0.6 -1,0.7 -0.92,0.66 c -0.33,0.25 -0.67,0.5 -1,0.76 L 65.484,10.362 c -0.32,0.27 -0.63,0.54 -0.94,0.82 -0.31,0.28 -0.56,0.53 -0.83,0.8 -0.27,0.27 -0.59,0.58 -0.88,0.88 -0.29,0.3 -0.53,0.58 -0.79,0.87 -0.26,0.29 -0.55,0.61 -0.81,0.93 -0.26,0.32 -0.5,0.63 -0.74,1 -0.24,0.37 -0.5,0.64 -0.73,1 -0.23,0.36 -0.47,0.7 -0.7,1.05 -0.23,0.35 -0.44,0.65 -0.65,1 -0.21,0.35 -0.46,0.81 -0.69,1.22 -0.23,0.41 -0.36,0.62 -0.52,0.94 v 0 0 c -0.78425,1.52777 -1.45279,3.11221 -2,4.74 l -4.12,12.32 c 15.93,-14.76 42.51,-28.4000001 60.15,20.27 20.84,57.5 39.3,126.71 75.6,120 3.20532,-3.50095 5.63803,-7.63724 7.14,-12.14 12.15,-36.63 35.91,-107.25 43.1,-128.63 l 0.09,-0.24 2,-6 c 0,0 -48.53,-4.87 -67.84,111.42 z"
     id="path17"
     style="fill:url(#linear-gradient-4);filter:url(#filter28)" />
  <metadata
     id="metadata82">
    <rdf:RDF>
      <cc:Work
         rdf:about="">
        <dc:title>NOHR AI</dc:title>
        <dc:date>2024</dc:date>
        <dc:creator>
          <cc:Agent>
            <dc:title>Johann Kroeger</dc:title>
          </cc:Agent>
        </dc:creator>
        <dc:rights>
          <cc:Agent>
            <dc:title>Johann Kroeger</dc:title>
          </cc:Agent>
        </dc:rights>
        <dc:publisher>
          <cc:Agent>
            <dc:title>Johann Kroeger</dc:title>
          </cc:Agent>
        </dc:publisher>
        <dc:identifier>GOD</dc:identifier>
      </cc:Work>
    </rdf:RDF>
  </metadata>
</svg>
