<svg id="Layer_1" data-name="Layer 1" xmlns="http://www.w3.org/2000/svg" xmlns:xlink="http://www.w3.org/1999/xlink" viewBox="0 0 320.91 264.89"><defs><style>.cls-1{fill:#f1f2f2;}.cls-2{fill:url(#linear-gradient);}.cls-3{fill:url(#linear-gradient-2);}.cls-4{fill:url(#linear-gradient-3);}.cls-5{fill:url(#linear-gradient-4);}</style><linearGradient id="linear-gradient" x1="358.44" y1="233.78" x2="315.34" y2="363.08" gradientUnits="userSpaceOnUse"><stop offset="0" stop-color="#693a8a"/><stop offset="0.21" stop-color="#913a8d"/><stop offset="0.45" stop-color="#b93991"/><stop offset="0.67" stop-color="#d53993"/><stop offset="0.86" stop-color="#e73994"/><stop offset="1" stop-color="#ed3995"/></linearGradient><linearGradient id="linear-gradient-2" x1="459.79" y1="307.73" x2="490.77" y2="205.37" xlink:href="#linear-gradient"/><linearGradient id="linear-gradient-3" x1="474.59" y1="326.8" x2="253.71" y2="256.76" xlink:href="#linear-gradient"/><linearGradient id="linear-gradient-4" x1="584.72" y1="320.06" x2="332.86" y2="204.23" xlink:href="#linear-gradient"/></defs><title>svg 2</title><path class="cls-1" d="M238.39,438.45a2.88,2.88,0,0,1-2.84-2.84V396.48a2.85,2.85,0,0,1,5.12-1.72l25,32.48V396.48a2.73,2.73,0,0,1,.84-2,2.76,2.76,0,0,1,2-.84,2.88,2.88,0,0,1,2.84,2.84v39.13a2.6,2.6,0,0,1-1.94,2.69,2.65,2.65,0,0,1-.91.16,2.75,2.75,0,0,1-2.28-1.12l-25-32.48v30.76a2.66,2.66,0,0,1-.84,2A2.77,2.77,0,0,1,238.39,438.45Z" transform="translate(-235.55 -173.55)"/><path class="cls-1" d="M300,438.45a22.39,22.39,0,1,1,15.86-6.56A21.57,21.57,0,0,1,300,438.45Zm0-39.09a16.74,16.74,0,1,0,11.8,4.9A16.09,16.09,0,0,0,300,399.35Z" transform="translate(-235.55 -173.55)"/><path class="cls-1" d="M331.53,438.45a2.88,2.88,0,0,1-2.84-2.84V396.48a2.73,2.73,0,0,1,.84-2,2.66,2.66,0,0,1,2-.84,2.77,2.77,0,0,1,2,.84,2.73,2.73,0,0,1,.84,2v16.71h22.8V396.48a2.88,2.88,0,0,1,2.84-2.84,2.77,2.77,0,0,1,2,.84,2.73,2.73,0,0,1,.84,2v39.13a2.66,2.66,0,0,1-.84,2,2.77,2.77,0,0,1-2,.84,2.73,2.73,0,0,1-2-.84,2.66,2.66,0,0,1-.84-2V418.9h-22.8v16.71a2.66,2.66,0,0,1-.84,2A2.77,2.77,0,0,1,331.53,438.45Z" transform="translate(-235.55 -173.55)"/><path class="cls-1" d="M372,438.45a2.88,2.88,0,0,1-2.84-2.84V420a2.77,2.77,0,0,1,.84-2,2.66,2.66,0,0,1,2-.84h15.05a8.9,8.9,0,1,0,0-17.8H372a2.66,2.66,0,0,1-2-.84,2.77,2.77,0,0,1-.84-2,2.73,2.73,0,0,1,.84-2,2.66,2.66,0,0,1,2-.84h15.05a14.61,14.61,0,0,1,3.87,28.7l10.43,11.33a2.77,2.77,0,0,1,.78,2,2.83,2.83,0,0,1-.94,2,2.87,2.87,0,0,1-4-.16l-13.52-14.68h-8.77v12.74a2.66,2.66,0,0,1-.84,2A2.77,2.77,0,0,1,372,438.45Z" transform="translate(-235.55 -173.55)"/><path class="cls-1" d="M409.25,433.58a2.67,2.67,0,0,1,2-.84,2.88,2.88,0,0,1,2.87,2.87,2.73,2.73,0,0,1-.84,2,2.77,2.77,0,0,1-2,.84,2.88,2.88,0,0,1-2.84-2.84A2.77,2.77,0,0,1,409.25,433.58Z" transform="translate(-235.55 -173.55)"/><path class="cls-1" d="M442.76,438.45a22.4,22.4,0,1,1,15.86-38.25,2.77,2.77,0,0,1,.84,2,2.67,2.67,0,0,1-.84,2,2.77,2.77,0,0,1-2,.84,2.66,2.66,0,0,1-2-.84,16.69,16.69,0,1,0,0,23.64,2.66,2.66,0,0,1,2-.84,2.77,2.77,0,0,1,2,.84,2.67,2.67,0,0,1,.84,2,2.77,2.77,0,0,1-.84,2A21.61,21.61,0,0,1,442.76,438.45Z" transform="translate(-235.55 -173.55)"/><path class="cls-1" d="M486.23,438.45a22.39,22.39,0,1,1,15.86-6.56A21.58,21.58,0,0,1,486.23,438.45Zm0-39.09a16.74,16.74,0,1,0,11.8,4.9A16.09,16.09,0,0,0,486.23,399.35Z" transform="translate(-235.55 -173.55)"/><path class="cls-1" d="M517.73,438.45a2.88,2.88,0,0,1-2.84-2.84V396.48a2.85,2.85,0,0,1,5.18-1.62l15.58,22,15.61-22a2.6,2.6,0,0,1,3.19-1.09,2.63,2.63,0,0,1,2,2.72v39.13a2.66,2.66,0,0,1-.84,2,2.76,2.76,0,0,1-2,.84,2.88,2.88,0,0,1-2.84-2.84V405.44L538,423.4a2.76,2.76,0,0,1-2.34,1.19,2.68,2.68,0,0,1-2.31-1.19l-12.74-18v30.16a2.66,2.66,0,0,1-.84,2A2.77,2.77,0,0,1,517.73,438.45Z" transform="translate(-235.55 -173.55)"/><path class="cls-2" d="M284.54,362.27s58.61,9.94,73.16-33.4c4.84-14.44,13-38.78,21.56-64.33l-14-47.38C328.39,366.21,284.54,362.27,284.54,362.27Z" transform="translate(-235.55 -173.55)"/><path class="cls-3" d="M450.3,237.13c-4.84,14.44-3.42,9.58-12,35.13l17.28,42.92c19.31-116.28,67.86-111.45,67.86-111.45S464.86,193.79,450.3,237.13Z" transform="translate(-235.55 -173.55)"/><path class="cls-4" d="M395.44,230.77c-17.65-48.67-44.22-35-60.15-20.27L284.54,362.27s43.86,3.95,80.67-145.11l14,47.38,9,27.69-.13-.29,11.77,36.71a60.88,60.88,0,0,0,12.18,22.11c15.18,17.13,44.22,16.17,59,0C434.74,357.48,416.28,288.27,395.44,230.77Z" transform="translate(-235.55 -173.55)"/><path class="cls-5" d="M455.6,315.18l-17.28-42.92,0,.11-.25-.78h0l-4.78-14.92-3.8-11.82-11.77-36.71A61,61,0,0,0,405.5,186q-.83-.94-1.72-1.81c-.21-.2-.42-.39-.64-.58-.39-.37-.79-.73-1.19-1.08s-.53-.42-.8-.64-.74-.6-1.13-.88-.59-.42-.89-.62-.74-.51-1.12-.75-.64-.39-1-.58-.75-.44-1.13-.65l-1-.53-1.14-.56-1.06-.47-1.15-.48-1.1-.41-1.16-.4-1.14-.35-1.17-.32-1.17-.29-1.18-.25-1.19-.22-1.18-.18-1.22-.16-1.17-.1-1.24-.09-1.16,0c-.42,0-.84,0-1.26,0l-1.12,0c-.43,0-.86,0-1.3,0l-1,.08c-1.12.09-2.24.22-3.35.4l-.34,0c-.46.08-.92.18-1.38.27l-1,.2c-.44.1-.87.22-1.3.33l-1,.27c-.42.12-.84.26-1.26.39l-1,.34c-.41.14-.81.3-1.22.46l-1,.4c-.4.16-.79.34-1.18.52l-1,.47-1.14.58-1,.53-1.09.64-.95.6-1,.7-.92.66c-.33.25-.67.5-1,.76l-.88.73c-.32.27-.63.54-.94.82s-.56.53-.83.8-.59.58-.88.88-.53.58-.79.87-.55.61-.81.93-.5.63-.74,1-.5.64-.73,1-.47.7-.7,1.05-.44.65-.65,1-.46.81-.69,1.22-.36.62-.52.94v0h0a34.34,34.34,0,0,0-2,4.74l-4.12,12.32c15.93-14.76,42.51-28.4,60.15,20.27,20.84,57.5,39.3,126.71,75.6,120a33.83,33.83,0,0,0,7.14-12.14C490.4,302,514.16,231.38,521.35,210l.09-.24,2-6S474.91,198.89,455.6,315.18Z" transform="translate(-235.55 -173.55)"/></svg>